# Blender v3.0.1 OBJ File: ''
# www.blender.org
mtllib yaprak.mtl
o Cube.001
v -0.088607 0.857148 -2.406673
v 0.004969 1.012528 -2.440761
v 0.004969 0.978719 -2.430797
v -0.065213 0.866765 -2.403290
v 0.331428 0.379713 -2.096084
v 0.440247 0.386216 -2.083093
v 0.303668 0.218923 -1.893738
v 0.228312 0.214062 -1.899529
v 0.211137 0.646962 -2.347278
v 0.133244 0.745318 -2.384502
v 0.176003 0.730259 -2.389115
v 0.279860 0.648216 -2.343608
v 0.075151 0.857084 -2.406897
v 0.098545 0.845860 -2.410878
v 0.355029 0.450645 -2.168738
v 0.338326 0.518369 -2.236670
v 0.449445 0.523350 -2.224861
v 0.471716 0.457128 -2.154712
v 0.283812 0.588526 -2.301321
v 0.376760 0.591351 -2.293836
v 0.146022 0.072844 -1.585646
v 0.193323 0.074399 -1.583752
v 0.139227 -0.018744 -1.293990
v 0.105662 -0.008153 -1.290343
v -0.042087 0.118416 -1.572336
v 0.004970 0.131541 -1.569074
v 0.004970 0.046899 -1.271229
v -0.028595 0.036828 -1.274693
v -0.069594 0.246619 -1.896261
v 0.004970 0.265721 -1.893636
v -0.111717 0.461722 -2.187831
v 0.004969 0.497095 -2.186263
v 0.004969 0.426106 -2.110505
v -0.103850 0.394616 -2.111668
v -0.087978 0.618794 -2.302909
v -0.063753 0.692013 -2.336899
v 0.004969 0.709103 -2.333735
v 0.004969 0.645952 -2.299223
v -0.106150 0.535222 -2.250299
v 0.004969 0.569330 -2.247546
v -0.037789 0.783911 -2.372119
v -0.018425 0.875951 -2.400268
v 0.004969 0.875887 -2.400491
v 0.004969 0.791472 -2.370301
v -0.088607 0.860386 -2.402047
v 0.004969 1.015767 -2.436135
v 0.331428 0.382951 -2.091458
v 0.228115 0.217491 -1.895619
v 0.303417 0.222352 -1.889829
v 0.440247 0.389454 -2.078467
v 0.211137 0.650200 -2.342652
v 0.279860 0.651454 -2.338982
v 0.176003 0.733490 -2.384491
v 0.133244 0.748551 -2.379878
v 0.098545 0.849099 -2.406252
v 0.075151 0.860322 -2.402271
v 0.355029 0.453883 -2.164112
v 0.471716 0.460367 -2.150086
v 0.449445 0.526589 -2.220235
v 0.338326 0.521608 -2.232044
v 0.376760 0.594590 -2.289211
v 0.283812 0.591765 -2.296695
v 0.145854 0.076257 -1.581743
v 0.193103 0.077828 -1.579843
v 0.105662 -0.004725 -1.286434
v 0.139227 -0.015315 -1.290081
v -0.042027 0.121831 -1.568431
v -0.028595 0.040256 -1.270784
v 0.004970 0.050328 -1.267320
v 0.004970 0.134970 -1.565165
v 0.004970 0.269150 -1.889727
v -0.069523 0.249928 -1.892394
v -0.111717 0.464780 -2.183272
v -0.103850 0.397669 -2.107112
v 0.004969 0.429345 -2.105880
v 0.004969 0.500334 -2.181637
v -0.087978 0.621941 -2.298316
v 0.004969 0.649191 -2.294597
v 0.004969 0.712341 -2.329109
v -0.063753 0.695234 -2.332279
v -0.106149 0.538310 -2.245729
v 0.004969 0.572569 -2.242920
v -0.037789 0.787150 -2.367493
v 0.004969 0.794710 -2.365675
v 0.004969 0.879126 -2.395865
v -0.018425 0.879190 -2.395642
v -0.269921 0.648216 -2.343608
v -0.366821 0.591351 -2.293836
v -0.366821 0.594590 -2.289210
v -0.269921 0.651454 -2.338982
v -0.439506 0.523350 -2.224861
v -0.461777 0.457128 -2.154712
v -0.461777 0.460367 -2.150086
v -0.439506 0.526589 -2.220235
v -0.293729 0.218923 -1.893737
v -0.183384 0.074399 -1.583752
v -0.183164 0.077828 -1.579843
v -0.293478 0.222352 -1.889828
v -0.166064 0.730424 -2.389052
v -0.166064 0.733815 -2.384370
v 0.051757 0.866701 -2.403514
v 0.004969 0.944780 -2.420795
v -0.129287 -0.018744 -1.293990
v -0.129287 -0.015315 -1.290080
v -0.430308 0.386216 -2.083092
v -0.430308 0.389454 -2.078466
v 0.038534 0.036828 -1.274693
v 0.072098 0.014424 -1.282488
v 0.072098 0.017852 -1.278579
v 0.038534 0.040256 -1.270784
v 0.051967 0.121831 -1.568432
v 0.098918 0.094129 -1.576813
v 0.153772 0.218533 -1.899337
v 0.079462 0.249928 -1.892394
v 0.121656 0.464780 -2.183272
v 0.113789 0.397669 -2.107112
v 0.222608 0.376448 -2.104449
v 0.238343 0.447400 -2.178137
v 0.097917 0.621941 -2.298316
v 0.190865 0.589584 -2.303939
v 0.142415 0.663566 -2.340875
v 0.073692 0.695234 -2.332279
v 0.116088 0.538310 -2.245729
v 0.227207 0.516628 -2.243854
v 0.047728 0.787150 -2.367493
v 0.090486 0.769101 -2.373220
v 0.051757 0.869940 -2.398888
v 0.028363 0.876644 -2.396590
v 0.052026 0.118416 -1.572336
v 0.099040 0.090754 -1.580703
v 0.079533 0.246619 -1.896261
v 0.153916 0.215198 -1.903213
v 0.121656 0.461722 -2.187831
v 0.238343 0.444161 -2.182763
v 0.222608 0.373210 -2.109075
v 0.113789 0.394616 -2.111669
v 0.097917 0.618794 -2.302909
v 0.073692 0.692013 -2.336899
v 0.142414 0.660376 -2.345483
v 0.190865 0.586372 -2.308555
v 0.116088 0.535222 -2.250299
v 0.227207 0.513389 -2.248479
v 0.047728 0.783911 -2.372119
v 0.028363 0.873405 -2.401216
v 0.090486 0.765862 -2.377846
v -0.095723 -0.008153 -1.290343
v -0.062159 0.014424 -1.282488
v -0.062159 0.017852 -1.278579
v -0.095723 -0.004725 -1.286434
v -0.321489 0.382951 -2.091458
v -0.218176 0.217491 -1.895619
v -0.143833 0.218533 -1.899337
v -0.212669 0.376448 -2.104449
v -0.201198 0.650200 -2.342652
v -0.132476 0.663566 -2.340875
v -0.080547 0.769101 -2.373220
v -0.123305 0.748551 -2.379878
v -0.041819 0.876708 -2.396367
v -0.065213 0.870004 -2.398664
v -0.345090 0.453883 -2.164111
v -0.228404 0.447399 -2.178137
v -0.217268 0.516628 -2.243853
v -0.328387 0.521608 -2.232044
v -0.180926 0.589584 -2.303939
v -0.273874 0.591765 -2.296694
v -0.135914 0.076257 -1.581743
v -0.088979 0.094129 -1.576813
v -0.321489 0.379713 -2.096084
v -0.212669 0.373210 -2.109075
v -0.143977 0.215198 -1.903213
v -0.218373 0.214062 -1.899528
v -0.201198 0.646962 -2.347278
v -0.123305 0.745318 -2.384502
v -0.080547 0.765862 -2.377846
v -0.132476 0.660376 -2.345483
v -0.041819 0.873469 -2.400993
v -0.345090 0.450645 -2.168737
v -0.328387 0.518369 -2.236670
v -0.217268 0.513389 -2.248479
v -0.228404 0.444161 -2.182763
v -0.273873 0.588526 -2.301321
v -0.180926 0.586372 -2.308555
v -0.136082 0.072844 -1.585645
v -0.089100 0.090754 -1.580703
v 0.004969 0.949621 -2.416641
v 0.004969 0.918753 -2.407544
v 0.004969 0.910195 -2.410602
v 0.004970 0.983675 -2.426677
vt 0.090402 0.074840
vt 0.106464 0.000000
vt 0.112222 0.013662
vt 0.099711 0.068983
vt 0.373833 0.250808
vt 0.422300 0.234576
vt 0.403791 0.369495
vt 0.370587 0.381861
vt 0.258568 0.108500
vt 0.206566 0.079263
vt 0.227181 0.075284
vt 0.289147 0.097701
vt 0.162841 0.047217
vt 0.174404 0.045507
vt 0.367234 0.201795
vt 0.343711 0.162058
vt 0.393298 0.145538
vt 0.419283 0.184571
vt 0.303428 0.128971
vt 0.344867 0.114811
vt 0.384333 0.538943
vt 0.405221 0.531095
vt 0.422300 0.660853
vt 0.406295 0.664366
vt 0.295911 0.560663
vt 0.315179 0.549692
vt 0.355759 0.670257
vt 0.342007 0.677943
vt 0.234473 0.422935
vt 0.265001 0.405274
vt 0.157328 0.270897
vt 0.204079 0.240751
vt 0.221426 0.286791
vt 0.177642 0.314533
vt 0.134486 0.181659
vt 0.131545 0.144065
vt 0.159825 0.128184
vt 0.172104 0.158735
vt 0.143361 0.227345
vt 0.187943 0.198905
vt 0.126602 0.099983
vt 0.119396 0.059206
vt 0.129734 0.055216
vt 0.144619 0.091009
vt 0.997329 0.398110
vt 0.974895 0.313645
vt 0.977566 0.313856
vt 1.000000 0.398322
vt 0.796594 0.437470
vt 0.792747 0.308510
vt 0.826065 0.321264
vt 0.845274 0.454439
vt 0.681923 0.579407
vt 0.712601 0.590391
vt 0.650862 0.613946
vt 0.630311 0.610693
vt 0.598642 0.647004
vt 0.587138 0.645855
vt 0.790192 0.486144
vt 0.842469 0.504144
vt 0.816609 0.542772
vt 0.766819 0.525616
vt 0.768263 0.573207
vt 0.726672 0.558659
vt 0.806714 0.158803
vt 0.827648 0.166773
vt 0.829312 0.042199
vt 0.845274 0.045187
vt 0.718516 0.139294
vt 0.765214 0.030861
vt 0.779080 0.039041
vt 0.737905 0.150852
vt 0.687342 0.287231
vt 0.656643 0.268771
vt 0.579770 0.416680
vt 0.599961 0.373656
vt 0.644052 0.402605
vt 0.626865 0.448186
vt 0.557500 0.507000
vt 0.595400 0.531056
vt 0.583388 0.562499
vt 0.554911 0.545883
vt 0.566034 0.460396
vt 0.610951 0.490191
vt 0.550441 0.591859
vt 0.568562 0.601171
vt 0.554094 0.638787
vt 0.543731 0.634811
vt 0.901239 0.051991
vt 0.949898 0.000000
vt 0.952507 0.000602
vt 0.903848 0.052593
vt 0.952970 0.181283
vt 0.961282 0.125810
vt 0.963953 0.126022
vt 0.955640 0.181495
vt 0.429153 0.745069
vt 0.424767 0.760994
vt 0.422300 0.760994
vt 0.426686 0.745069
vt 0.974056 0.069801
vt 0.986590 0.028291
vt 0.989261 0.028503
vt 0.976727 0.070012
vt 0.479235 0.930704
vt 0.475424 0.815436
vt 0.477316 0.813850
vt 0.481133 0.929124
vt 0.952507 0.246349
vt 0.955238 0.246601
vt 0.850613 0.142096
vt 0.854170 0.117384
vt 0.856779 0.117987
vt 0.853221 0.142697
vt 0.891578 0.565816
vt 0.845274 0.402705
vt 0.847721 0.403027
vt 0.894025 0.566135
vt 0.848028 0.221731
vt 0.849017 0.179379
vt 0.851626 0.179981
vt 0.850637 0.222333
vt 0.867916 0.087113
vt 0.870521 0.087717
vt 0.151449 0.049237
vt 0.118002 0.027377
vt 0.479286 0.698923
vt 0.481133 0.697294
vt 0.845430 0.271588
vt 0.848039 0.272191
vt 0.950058 0.700298
vt 0.952507 0.700594
vt 0.997329 0.000000
vt 1.000000 0.000212
vt 0.483725 0.697294
vt 0.483725 0.763856
vt 0.481351 0.764536
vt 0.481133 0.697903
vt 0.448807 0.808768
vt 0.453422 0.824694
vt 0.450954 0.824694
vt 0.446341 0.808768
vt 0.429153 0.776919
vt 0.438942 0.792844
vt 0.436476 0.792844
vt 0.426686 0.776919
vt 0.760209 0.155112
vt 0.794990 0.042158
vt 0.812142 0.042200
vt 0.783960 0.155733
vt 0.759259 0.297390
vt 0.722727 0.293843
vt 0.683287 0.455953
vt 0.696498 0.410281
vt 0.747913 0.420501
vt 0.737916 0.468144
vt 0.639957 0.538283
vt 0.685017 0.544268
vt 0.649802 0.571983
vt 0.615877 0.569013
vt 0.664611 0.497795
vt 0.717030 0.508461
vt 0.588373 0.606250
vt 0.609219 0.608776
vt 0.575793 0.644314
vt 0.564735 0.642065
vt 0.337549 0.544816
vt 0.361477 0.542851
vt 0.388991 0.665486
vt 0.371707 0.666640
vt 0.300451 0.397826
vt 0.337157 0.392869
vt 0.260579 0.231603
vt 0.315184 0.219018
vt 0.325366 0.267041
vt 0.273932 0.277889
vt 0.216731 0.150360
vt 0.192354 0.120923
vt 0.226430 0.116470
vt 0.261918 0.143001
vt 0.241686 0.189926
vt 0.294124 0.178579
vt 0.164437 0.085584
vt 0.140367 0.051819
vt 0.185369 0.082183
vt 0.448807 0.713219
vt 0.438942 0.729144
vt 0.436476 0.729144
vt 0.446341 0.713219
vt 0.506981 0.327595
vt 0.594787 0.233407
vt 0.627251 0.247308
vt 0.554838 0.347251
vt 0.499024 0.510018
vt 0.527870 0.525723
vt 0.533354 0.579994
vt 0.516514 0.567520
vt 0.533618 0.630215
vt 0.523923 0.624590
vt 0.479643 0.368325
vt 0.530883 0.389598
vt 0.519875 0.433663
vt 0.471088 0.413419
vt 0.520103 0.481702
vt 0.479301 0.464809
vt 0.681731 0.111386
vt 0.700615 0.124113
vt 0.739984 0.008309
vt 0.752590 0.019607
vt 0.084964 0.360742
vt 0.132787 0.340330
vt 0.205361 0.443026
vt 0.172960 0.457072
vt 0.076139 0.177926
vt 0.093061 0.122459
vt 0.109699 0.110980
vt 0.104810 0.162754
vt 0.109329 0.063687
vt 0.057481 0.319676
vt 0.048738 0.274315
vt 0.097475 0.253417
vt 0.108682 0.297606
vt 0.056692 0.222870
vt 0.097427 0.205601
vt 0.259522 0.586442
vt 0.278238 0.574528
vt 0.329592 0.688091
vt 0.317196 0.698274
vt 0.542454 0.668972
vt 0.547551 0.655755
vt 0.123891 0.041353
vt 0.238555 0.594522
vt 0.303501 0.706063
vt 0.139485 0.470081
vt 0.006279 0.341746
vt 0.037141 0.381154
vt 0.015886 0.240010
vt 0.045908 0.190269
vt 0.000000 0.295213
vt 0.075823 0.132848
vt 0.660748 0.103453
vt 0.726170 0.000000
vt 0.561303 0.220816
vt 0.428402 0.347052
vt 0.459125 0.307939
vt 0.438435 0.448075
vt 0.468737 0.497871
vt 0.422300 0.393176
vt 0.499100 0.556461
vt 0.514514 0.618257
vt 0.453422 0.697294
vt 0.450954 0.697294
vt 0.536831 0.683553
vt 0.531532 0.697294
vt 0.453422 0.822517
vt 0.458428 0.697294
vt 0.475424 0.700681
vt 0.475424 0.828296
vn -0.4466 0.1313 -0.8851
vn 0.0108 0.5291 -0.8485
vn -0.0324 -0.3265 -0.9446
vn 0.2004 -0.2976 -0.9334
vn 0.1103 -0.7599 -0.6407
vn 0.6893 -0.6779 -0.2557
vn 0.6103 -0.7666 -0.1995
vn 0.0337 -0.8600 -0.5092
vn -0.0424 -0.5059 -0.8615
vn -0.2128 -0.3841 -0.8984
vn 0.3972 0.0318 -0.9172
vn 0.4566 0.0254 -0.8893
vn -0.2581 -0.3218 -0.9110
vn 0.4111 0.0916 -0.9070
vn 0.1192 -0.7103 -0.6938
vn 0.1059 -0.6627 -0.7413
vn 0.7243 -0.1800 -0.6656
vn 0.7918 -0.4420 -0.4216
vn 0.0733 -0.5969 -0.7990
vn 0.5694 -0.0110 -0.8220
vn -0.1670 -0.9208 -0.3525
vn 0.6186 -0.7769 -0.1175
vn 0.4897 -0.8528 0.1817
vn -0.3064 -0.9345 0.1810
vn 0.3877 -0.8652 -0.3179
vn -0.0000 -0.9434 -0.3316
vn -0.0000 -0.9626 0.2708
vn 0.3784 -0.8953 0.2349
vn 0.2932 -0.8212 -0.4895
vn -0.0000 -0.8668 -0.4987
vn 0.1539 -0.6910 -0.7063
vn 0.0000 -0.6889 -0.7249
vn -0.0000 -0.7670 -0.6417
vn 0.1951 -0.7481 -0.6343
vn 0.2145 -0.5410 -0.8132
vn 0.2210 -0.4452 -0.8677
vn 0.0000 -0.4304 -0.9027
vn 0.0000 -0.5110 -0.8596
vn 0.1715 -0.6232 -0.7630
vn 0.0000 -0.6010 -0.7992
vn 0.1600 -0.3505 -0.9228
vn 0.0658 -0.3011 -0.9513
vn -0.0239 -0.3034 -0.9526
vn -0.0075 -0.3582 -0.9336
vn -0.7306 0.5067 0.4578
vn 0.0044 0.9863 0.1648
vn -0.1105 0.7595 0.6410
vn -0.0342 0.8597 0.5096
vn 0.6523 0.4316 0.6231
vn 0.6500 0.3128 0.6926
vn 0.0422 0.5058 0.8616
vn 0.4393 0.8549 0.2759
vn 0.6206 0.7021 0.3492
vn 0.2127 0.3839 0.8985
vn 0.7407 0.5263 0.4175
vn 0.2589 0.3220 0.9107
vn -0.1192 0.7103 0.6938
vn 0.7236 0.4557 0.5184
vn 0.6297 0.7133 0.3076
vn -0.1059 0.6627 0.7413
vn 0.4739 0.8523 0.2213
vn -0.0733 0.5969 0.7989
vn 0.1666 0.9209 0.3524
vn 0.7207 0.5713 0.3927
vn 0.0172 0.1129 0.9935
vn 0.4377 0.0695 0.8964
vn -0.3884 0.8650 0.3177
vn -0.2356 0.2122 0.9484
vn 0.0000 0.3444 0.9388
vn 0.0000 0.9435 0.3315
vn 0.0000 0.8665 0.4992
vn -0.2937 0.8208 0.4898
vn -0.1538 0.6909 0.7064
vn -0.1952 0.7477 0.6346
vn -0.0000 0.7666 0.6421
vn -0.0000 0.6888 0.7250
vn -0.2146 0.5407 0.8134
vn -0.0000 0.5108 0.8597
vn -0.0000 0.4302 0.9027
vn -0.2212 0.4450 0.8678
vn -0.1714 0.6230 0.7632
vn -0.0000 0.6009 0.7993
vn -0.1600 0.3504 0.9228
vn 0.0075 0.3582 0.9336
vn 0.0239 0.3034 0.9526
vn -0.0660 0.3011 0.9513
vn -0.4560 0.0242 -0.8897
vn -0.5694 -0.0109 -0.8220
vn -0.4739 0.8523 0.2213
vn -0.4400 0.8549 0.2749
vn -0.7243 -0.1800 -0.6656
vn -0.7918 -0.4420 -0.4216
vn -0.7236 0.4557 0.5184
vn -0.6297 0.7133 0.3076
vn -0.6103 -0.7666 -0.1996
vn -0.6186 -0.7769 -0.1175
vn -0.7207 0.5713 0.3927
vn -0.6523 0.4316 0.6231
vn -0.3945 0.0305 -0.9184
vn -0.6308 0.6869 0.3608
vn -0.2199 -0.3223 -0.9208
vn -0.0449 -0.3171 -0.9473
vn -0.4897 -0.8528 0.1816
vn -0.4377 0.0695 0.8964
vn -0.6893 -0.6779 -0.2557
vn -0.6500 0.3128 0.6926
vn -0.3785 -0.8953 0.2349
vn -0.4719 -0.8580 0.2029
vn 0.1984 0.1204 0.9727
vn 0.2356 0.2122 0.9484
vn 0.3884 0.8650 0.3177
vn 0.4101 0.8499 0.3309
vn 0.1955 0.8382 0.5090
vn 0.2937 0.8208 0.4898
vn 0.1538 0.6909 0.7064
vn 0.1952 0.7477 0.6346
vn 0.0283 0.7606 0.6486
vn -0.0207 0.7070 0.7069
vn 0.2146 0.5407 0.8134
vn 0.0820 0.5829 0.8084
vn 0.2148 0.4808 0.8501
vn 0.2212 0.4450 0.8678
vn 0.1714 0.6230 0.7632
vn 0.0007 0.6527 0.7576
vn 0.1830 0.3659 0.9125
vn 0.2724 0.3748 0.8862
vn 0.2204 0.3221 0.9207
vn 0.1305 0.3147 0.9402
vn -0.3877 -0.8652 -0.3179
vn -0.4100 -0.8498 -0.3312
vn -0.2932 -0.8212 -0.4895
vn -0.1960 -0.8384 -0.5087
vn -0.1539 -0.6910 -0.7063
vn 0.0200 -0.7070 -0.7069
vn -0.0292 -0.7609 -0.6482
vn -0.1951 -0.7481 -0.6343
vn -0.2145 -0.5410 -0.8132
vn -0.2210 -0.4452 -0.8677
vn -0.2151 -0.4811 -0.8499
vn -0.0825 -0.5831 -0.8082
vn -0.1715 -0.6232 -0.7630
vn -0.0014 -0.6528 -0.7575
vn -0.1830 -0.3659 -0.9125
vn -0.1299 -0.3148 -0.9402
vn -0.2724 -0.3749 -0.8861
vn 0.3064 -0.9345 0.1810
vn 0.4719 -0.8580 0.2029
vn -0.1984 0.1204 0.9727
vn -0.0172 0.1129 0.9935
vn 0.1105 0.7595 0.6410
vn 0.0342 0.8597 0.5096
vn -0.1955 0.8382 0.5090
vn -0.0283 0.7606 0.6486
vn -0.0412 0.5047 0.8623
vn -0.2148 0.4808 0.8501
vn -0.2470 0.3469 0.9048
vn -0.1910 0.3497 0.9172
vn -0.1477 0.3012 0.9420
vn -0.2012 0.2979 0.9332
vn 0.1192 0.7103 0.6938
vn 0.0207 0.7070 0.7069
vn -0.0007 0.6527 0.7576
vn 0.1059 0.6627 0.7413
vn -0.0820 0.5829 0.8084
vn 0.0733 0.5969 0.7989
vn -0.1666 0.9209 0.3524
vn -0.4101 0.8499 0.3309
vn -0.1103 -0.7599 -0.6406
vn 0.0292 -0.7609 -0.6482
vn 0.1960 -0.8384 -0.5087
vn -0.0337 -0.8600 -0.5092
vn 0.0419 -0.5053 -0.8619
vn 0.1919 -0.3501 -0.9168
vn 0.2470 -0.3470 -0.9048
vn 0.2151 -0.4811 -0.8499
vn 0.1474 -0.3014 -0.9420
vn -0.1192 -0.7103 -0.6938
vn -0.1059 -0.6627 -0.7413
vn 0.0014 -0.6528 -0.7575
vn -0.0200 -0.7070 -0.7069
vn -0.0733 -0.5969 -0.7990
vn 0.0825 -0.5831 -0.8082
vn 0.1670 -0.9208 -0.3525
vn 0.4100 -0.8498 -0.3312
vn 0.0449 0.3169 0.9474
vn 0.0498 0.2993 0.9529
vn -0.0489 -0.2985 -0.9531
vn 0.0320 0.3273 0.9444
usemtl None
s 1
f 1/1/1 2/2/2 3/3/3 4/4/4
f 5/5/5 6/6/6 7/7/7 8/8/8
f 9/9/9 10/10/10 11/11/11 12/12/12
f 10/10/10 13/13/13 14/14/14 11/11/11
f 15/15/15 16/16/16 17/17/17 18/18/18
f 16/16/16 19/19/19 20/20/20 17/17/17
f 19/19/19 9/9/9 12/12/12 20/20/20
f 15/15/15 18/18/18 6/6/6 5/5/5
f 21/21/21 8/8/8 7/7/7 22/22/22
f 21/21/21 22/22/22 23/23/23 24/24/24
f 25/25/25 26/26/26 27/27/27 28/28/28
f 25/25/25 29/29/29 30/30/30 26/26/26
f 31/31/31 32/32/32 33/33/33 34/34/34
f 35/35/35 36/36/36 37/37/37 38/38/38
f 39/39/39 35/35/35 38/38/38 40/40/40
f 31/31/31 39/39/39 40/40/40 32/32/32
f 41/41/41 42/42/42 43/43/43 44/44/44
f 36/36/36 41/41/41 44/44/44 37/37/37
f 34/34/34 33/33/33 30/30/30 29/29/29
f 2/45/2 1/46/1 45/47/45 46/48/46
f 47/49/47 48/50/48 49/51/49 50/52/50
f 51/53/51 52/54/52 53/55/53 54/56/54
f 54/56/54 53/55/53 55/57/55 56/58/56
f 57/59/57 58/60/58 59/61/59 60/62/60
f 60/62/60 59/61/59 61/63/61 62/64/62
f 62/64/62 61/63/61 52/54/52 51/53/51
f 57/59/57 47/49/47 50/52/50 58/60/58
f 63/65/63 64/66/64 49/51/49 48/50/48
f 63/65/63 65/67/65 66/68/66 64/66/64
f 67/69/67 68/70/68 69/71/69 70/72/70
f 67/69/67 70/72/70 71/73/71 72/74/72
f 73/75/73 74/76/74 75/77/75 76/78/76
f 77/79/77 78/80/78 79/81/79 80/82/80
f 81/83/81 82/84/82 78/80/78 77/79/77
f 73/75/73 76/78/76 82/84/82 81/83/81
f 83/85/83 84/86/84 85/87/85 86/88/86
f 80/82/80 79/81/79 84/86/84 83/85/83
f 74/76/74 72/74/72 71/73/71 75/77/75
f 14/89/14 2/90/2 46/91/46 55/92/55
f 87/93/87 88/94/88 89/95/89 90/96/90
f 28/97/28 27/98/27 69/99/69 68/100/68
f 91/101/91 92/102/92 93/103/93 94/104/94
f 95/105/95 96/106/96 97/107/97 98/108/98
f 99/109/99 87/93/87 90/96/90 100/110/100
f 20/111/20 12/112/12 52/113/52 61/114/61
f 22/115/22 7/116/7 49/117/49 64/118/64
f 18/119/18 17/120/17 59/121/59 58/122/58
f 12/112/12 11/123/11 53/124/53 52/113/52
f 3/3/3 13/13/13 101/125/101 102/126/102
f 96/106/96 103/127/103 104/128/104 97/107/97
f 6/129/6 18/119/18 58/122/58 50/130/50
f 88/94/88 91/101/91 94/104/94 89/95/89
f 23/131/23 22/115/22 64/118/64 66/132/66
f 1/46/1 99/109/99 100/110/100 45/47/45
f 92/102/92 105/133/105 106/134/106 93/103/93
f 17/120/17 20/111/20 61/114/61 59/121/59
f 105/135/105 95/136/95 98/137/98 106/138/106
f 11/123/11 14/89/14 55/92/55 53/124/53
f 7/116/7 6/129/6 50/130/50 49/117/49
f 24/139/24 23/140/23 66/141/66 65/142/65
f 107/143/107 108/144/108 109/145/109 110/146/110
f 111/147/111 110/148/110 109/149/109 112/150/112
f 111/147/111 112/150/112 113/151/113 114/152/114
f 115/153/115 116/154/116 117/155/117 118/156/118
f 119/157/119 120/158/120 121/159/121 122/160/122
f 123/161/123 124/162/124 120/158/120 119/157/119
f 115/153/115 118/156/118 124/162/124 123/161/123
f 125/163/125 126/164/126 127/165/127 128/166/128
f 122/160/122 121/159/121 126/164/126 125/163/125
f 116/154/116 114/152/114 113/151/113 117/155/117
f 129/167/129 130/168/130 108/169/108 107/170/107
f 129/167/129 131/171/131 132/172/132 130/168/130
f 133/173/133 134/174/134 135/175/135 136/176/136
f 137/177/137 138/178/138 139/179/139 140/180/140
f 141/181/141 137/177/137 140/180/140 142/182/142
f 133/173/133 141/181/141 142/182/142 134/174/134
f 143/183/143 144/184/144 101/125/101 145/185/145
f 138/178/138 143/183/143 145/185/145 139/179/139
f 136/176/136 135/175/135 132/172/132 131/171/131
f 146/186/146 147/187/147 148/188/148 149/189/149
f 150/190/150 151/191/151 152/192/152 153/193/153
f 154/194/154 155/195/155 156/196/156 157/197/157
f 157/197/157 156/196/156 158/198/158 159/199/159
f 160/200/160 161/201/161 162/202/162 163/203/163
f 163/203/163 162/202/162 164/204/164 165/205/165
f 165/205/165 164/204/164 155/195/155 154/194/154
f 160/200/160 150/190/150 153/193/153 161/201/161
f 166/206/166 167/207/167 152/192/152 151/191/151
f 166/206/166 149/208/149 148/209/148 167/207/167
f 168/210/168 169/211/169 170/212/170 171/213/171
f 172/214/172 173/215/173 174/216/174 175/217/175
f 173/215/173 4/4/4 176/218/176 174/216/174
f 177/219/177 178/220/178 179/221/179 180/222/180
f 178/220/178 181/223/181 182/224/182 179/221/179
f 181/223/181 172/214/172 175/217/175 182/224/182
f 177/219/177 180/222/180 169/211/169 168/210/168
f 183/225/183 171/213/171 170/212/170 184/226/184
f 183/225/183 184/226/184 147/227/147 146/228/146
f 33/33/33 136/176/136 131/171/131 30/30/30
f 37/37/37 44/44/44 143/183/143 138/178/138
f 44/44/44 43/43/43 144/184/144 143/183/143
f 32/32/32 40/40/40 141/181/141 133/173/133
f 40/40/40 38/38/38 137/177/137 141/181/141
f 38/38/38 37/37/37 138/178/138 137/177/137
f 32/32/32 133/173/133 136/176/136 33/33/33
f 26/26/26 30/30/30 131/171/131 129/167/129
f 26/26/26 129/167/129 107/170/107 27/27/27
f 75/77/75 71/73/71 114/152/114 116/154/116
f 79/81/79 122/160/122 125/163/125 84/86/84
f 84/86/84 125/163/125 128/166/128 85/87/85
f 76/78/76 115/153/115 123/161/123 82/84/82
f 82/84/82 123/161/123 119/157/119 78/80/78
f 78/80/78 119/157/119 122/160/122 79/81/79
f 76/78/76 75/77/75 116/154/116 115/153/115
f 70/72/70 111/147/111 114/152/114 71/73/71
f 70/72/70 69/71/69 110/148/110 111/147/111
f 27/98/27 107/143/107 110/146/110 69/99/69
f 128/166/128 127/165/127 185/229/185 186/230/186
f 187/231/187 144/184/144 43/43/43
f 3/3/3 2/2/2 14/14/14 13/13/13
f 96/232/96 183/225/183 146/228/146 103/233/103
f 96/232/96 95/234/95 171/213/171 183/225/183
f 92/235/92 177/219/177 168/210/168 105/236/105
f 88/237/88 87/238/87 172/214/172 181/223/181
f 91/239/91 88/237/88 181/223/181 178/220/178
f 92/235/92 91/239/91 178/220/178 177/219/177
f 99/240/99 1/1/1 4/4/4 173/215/173
f 87/238/87 99/240/99 173/215/173 172/214/172
f 105/236/105 168/210/168 171/213/171 95/234/95
f 97/241/97 104/242/104 149/208/149 166/206/166
f 97/241/97 166/206/166 151/191/151 98/243/98
f 93/244/93 106/245/106 150/190/150 160/200/160
f 89/246/89 165/205/165 154/194/154 90/247/90
f 94/248/94 163/203/163 165/205/165 89/246/89
f 93/244/93 160/200/160 163/203/163 94/248/94
f 100/249/100 157/197/157 159/199/159 45/250/45
f 90/247/90 154/194/154 157/197/157 100/249/100
f 106/245/106 98/243/98 151/191/151 150/190/150
f 103/251/103 146/186/146 149/189/149 104/252/104
f 108/144/108 24/139/24 65/142/65 109/145/109
f 159/199/159 158/198/158 185/229/185 188/253/188
f 112/150/112 109/149/109 65/67/65 63/65/63
f 112/150/112 63/65/63 48/50/48 113/151/113
f 118/156/118 117/155/117 47/49/47 57/59/57
f 120/158/120 62/64/62 51/53/51 121/159/121
f 124/162/124 60/62/60 62/64/62 120/158/120
f 118/156/118 57/59/57 60/62/60 124/162/124
f 126/164/126 54/56/54 56/58/56 127/165/127
f 121/159/121 51/53/51 54/56/54 126/164/126
f 117/155/117 113/151/113 48/50/48 47/49/47
f 4/4/4 3/3/3 102/126/102 176/218/176
f 130/168/130 21/21/21 24/24/24 108/169/108
f 130/168/130 132/172/132 8/8/8 21/21/21
f 134/174/134 15/15/15 5/5/5 135/175/135
f 140/180/140 139/179/139 9/9/9 19/19/19
f 142/182/142 140/180/140 19/19/19 16/16/16
f 134/174/134 142/182/142 16/16/16 15/15/15
f 145/185/145 101/125/101 13/13/13 10/10/10
f 139/179/139 145/185/145 10/10/10 9/9/9
f 135/175/135 5/5/5 8/8/8 132/172/132
f 56/58/56 55/57/55 46/254/46 188/253/188
f 42/42/42 187/231/187 43/43/43
f 186/230/186 85/87/85 128/166/128
f 176/218/176 102/126/102 187/231/187 42/42/42
f 147/187/147 28/97/28 68/100/68 148/188/148
f 186/230/186 86/88/86 85/87/85
f 153/193/153 152/192/152 72/74/72 74/76/74
f 155/195/155 80/82/80 83/85/83 156/196/156
f 156/196/156 83/85/83 86/88/86 158/198/158
f 161/201/161 73/75/73 81/83/81 162/202/162
f 162/202/162 81/83/81 77/79/77 164/204/164
f 164/204/164 77/79/77 80/82/80 155/195/155
f 161/201/161 153/193/153 74/76/74 73/75/73
f 167/207/167 67/69/67 72/74/72 152/192/152
f 167/255/167 148/256/148 68/257/68 67/258/67
f 102/126/102 101/125/101 144/184/144 187/231/187
f 169/211/169 34/34/34 29/29/29 170/212/170
f 175/217/175 174/216/174 41/41/41 36/36/36
f 174/216/174 176/218/176 42/42/42 41/41/41
f 180/222/180 179/221/179 39/39/39 31/31/31
f 179/221/179 182/224/182 35/35/35 39/39/39
f 182/224/182 175/217/175 36/36/36 35/35/35
f 180/222/180 31/31/31 34/34/34 169/211/169
f 184/226/184 170/212/170 29/29/29 25/25/25
f 184/226/184 25/25/25 28/28/28 147/227/147
f 45/250/45 159/199/159 188/253/188 46/254/46
f 185/229/185 158/198/158 86/88/86 186/230/186
f 185/229/185 127/165/127 56/58/56 188/253/188
